<?xml version="1.0" standalone="no"?>
<!DOCTYPE svg PUBLIC "-//W3C//DTD SVG 20010904//EN"
 "http://www.w3.org/TR/2001/REC-SVG-20010904/DTD/svg10.dtd">
<svg version="1.0" xmlns="http://www.w3.org/2000/svg"
 width="384.000000pt" height="384.000000pt" viewBox="0 0 384.000000 384.000000"
 preserveAspectRatio="xMidYMid meet">
<metadata>
Created by potrace 1.11, written by Peter Selinger 2001-2013
</metadata>
<g transform="translate(0.000000,384.000000) scale(0.100000,-0.100000)"
fill="#000000" stroke="none">
<path d="M375 3561 c-53 -24 -90 -66 -105 -118 -25 -84 11 -157 122 -243 124
-97 160 -154 143 -229 -4 -18 -18 -45 -31 -61 -62 -73 -188 -36 -215 63 -22
84 -49 85 -49 3 0 -77 15 -112 53 -126 53 -18 139 -23 187 -10 57 15 124 80
139 135 30 110 -5 185 -133 280 -126 94 -154 137 -136 206 19 68 101 99 170
64 18 -9 34 -30 45 -59 33 -85 64 -64 49 32 -8 51 -12 56 -44 68 -53 19 -148
17 -195 -5z"/>
<path d="M2083 3573 c-92 -3 -113 -6 -113 -19 0 -8 13 -17 30 -21 58 -11 60
-20 60 -328 0 -154 -4 -286 -9 -293 -4 -7 -26 -19 -47 -27 -21 -7 -39 -19 -39
-26 0 -19 277 -19 283 -1 2 7 -9 15 -27 18 -18 4 -40 18 -51 32 -19 23 -20 41
-20 317 0 333 -3 321 79 313 108 -11 169 -88 157 -200 -7 -68 -36 -131 -71
-154 -13 -8 -45 -19 -72 -22 -66 -10 -51 -27 23 -26 113 1 197 77 211 191 9
78 -3 119 -48 168 -64 69 -132 84 -346 78z"/>
<path d="M700 3555 c0 -8 16 -19 40 -25 22 -6 44 -19 50 -30 6 -11 10 -126 10
-292 0 -308 0 -309 -71 -328 -23 -6 -39 -16 -36 -23 5 -17 299 -17 304 0 3 7
-13 16 -36 23 -74 20 -71 8 -71 330 0 289 0 290 23 304 12 8 34 18 50 21 15 4
27 13 27 21 0 11 -28 14 -145 14 -121 0 -145 -2 -145 -15z"/>
<path d="M1060 3555 c0 -8 16 -19 40 -25 64 -17 74 -42 66 -163 -11 -179 -38
-411 -51 -443 -9 -23 -24 -35 -50 -44 -68 -22 -36 -35 90 -35 125 0 158 13 90
35 -60 20 -67 46 -55 212 14 195 22 268 29 273 8 4 84 -190 151 -381 25 -72
50 -132 55 -134 6 -1 64 115 130 259 l120 262 7 -43 c3 -24 7 -129 7 -234 1
-205 1 -205 -52 -218 -16 -4 -27 -12 -24 -19 5 -17 279 -17 284 0 3 7 -13 16
-36 23 -23 6 -47 21 -55 33 -16 25 -36 290 -36 477 l0 111 56 25 c75 33 60 46
-47 42 l-84 -3 -12 -49 c-14 -55 -213 -506 -223 -506 -9 0 -178 462 -186 508
-9 44 -28 52 -128 52 -69 0 -86 -3 -86 -15z"/>
<path d="M2530 3556 c0 -8 14 -17 33 -21 59 -13 57 -3 57 -320 0 -274 -1 -293
-19 -309 -10 -9 -32 -21 -47 -25 -16 -4 -29 -13 -29 -20 0 -17 510 -24 523 -7
5 6 12 30 16 54 3 23 9 60 12 82 9 55 -7 51 -40 -11 -41 -75 -71 -89 -186 -89
-151 0 -140 -25 -140 321 l0 289 33 15 c17 7 44 16 60 20 15 3 27 12 27 20 0
13 -24 15 -150 15 -123 0 -150 -3 -150 -14z"/>
<path d="M3110 3555 c0 -8 16 -19 40 -25 22 -6 44 -19 50 -30 6 -11 10 -126
10 -292 0 -308 0 -309 -71 -328 -88 -24 -35 -32 211 -34 l244 -1 7 28 c13 50
15 110 2 114 -7 2 -21 -14 -32 -36 -25 -48 -60 -61 -168 -61 -64 0 -74 3 -87
23 -18 29 -30 259 -13 276 12 12 87 15 125 5 12 -4 29 -19 38 -35 25 -49 34
-34 34 56 0 47 -3 85 -6 85 -3 0 -19 -14 -34 -30 -27 -29 -32 -31 -97 -28
l-68 3 4 130 c2 72 8 136 13 143 13 16 158 16 192 0 15 -6 31 -26 38 -45 17
-46 38 -43 38 6 0 22 -4 51 -10 65 l-10 26 -225 0 c-191 0 -225 -2 -225 -15z"/>
<path d="M1194 2510 c-373 -38 -717 -241 -912 -538 -217 -331 -238 -755 -53
-1118 161 -319 470 -547 805 -593 141 -20 436 -10 586 20 30 6 91 24 135 41
158 58 151 53 184 132 32 79 81 263 81 308 0 16 -5 38 -11 49 -10 19 -11 19
-49 -2 -29 -16 -52 -44 -92 -112 -133 -225 -325 -337 -578 -337 -121 0 -222
25 -333 82 -107 55 -259 205 -329 324 -210 359 -245 805 -90 1137 185 396 549
579 947 477 165 -42 244 -104 314 -245 16 -33 179 -460 361 -950 183 -490 339
-900 347 -913 19 -31 33 -19 66 60 14 35 179 437 367 893 188 457 353 850 367
875 80 140 190 237 308 272 38 11 80 27 93 34 27 17 29 50 4 63 -20 11 -835 7
-864 -4 -50 -19 -16 -63 68 -90 99 -31 183 -140 192 -249 4 -48 -12 -91 -231
-632 -130 -320 -241 -591 -249 -603 -17 -27 -34 -27 -52 2 -8 12 -110 274
-227 582 l-213 560 0 85 c-1 76 2 90 29 139 34 61 74 91 159 121 68 23 86 36
86 60 0 36 -55 42 -293 35 -210 -6 -431 3 -587 24 -109 15 -251 19 -336 11z"/>
</g>
</svg>
